<?xml version="1.0" encoding="utf-8"?>
<!-- Generator: Adobe Illustrator 26.5.0, SVG Export Plug-In . SVG Version: 6.00 Build 0)  -->
<svg version="1.1" id="Livello_1" xmlns="http://www.w3.org/2000/svg" xmlns:xlink="http://www.w3.org/1999/xlink" x="0px" y="0px"
	 viewBox="0 0 270 34" style="enable-background:new 0 0 270 34;" xml:space="preserve">
<style type="text/css">
	.st0{fill:#F17E41;}
	.st1{fill:#EFE7DC;}
</style>
<g>
	<g>
		<path class="st0" d="M10.2,13.8c-0.6,0-1.1-0.2-1.6-0.7c-0.4-0.4-0.7-1-0.7-1.6C8,11,8.2,10.5,8.6,10c0.4-0.4,1-0.6,1.6-0.6
			c0.6,0,1.1,0.2,1.6,0.6c0.4,0.4,0.6,1,0.6,1.6c0,0.6-0.2,1.1-0.6,1.6C11.3,13.6,10.8,13.8,10.2,13.8z M10.2,25.9
			c-0.6,0-1.1-0.2-1.6-0.7c-0.4-0.4-0.7-1-0.7-1.6c0-0.6,0.2-1.1,0.7-1.6c0.4-0.4,1-0.6,1.6-0.6c0.6,0,1.1,0.2,1.6,0.6
			c0.4,0.4,0.6,1,0.6,1.6c0,0.6-0.2,1.1-0.6,1.6C11.3,25.7,10.8,25.9,10.2,25.9z"/>
		<path class="st1" d="M27,25.9c-2.1,0-3.7-0.7-4.7-2.1c-1.1-1.4-1.6-3.4-1.6-6.1c0-2.8,0.5-4.9,1.6-6.3c1.1-1.4,2.7-2.1,4.7-2.1
			c1.2,0,2.2,0.3,2.9,0.8c0.7,0.6,1.2,1.3,1.3,2.3h1.2l-0.9,4.5c0-1.6-0.3-2.9-1-3.7c-0.6-0.9-1.6-1.3-2.9-1.3
			c-1.3,0-2.3,0.5-2.9,1.4s-1,2.4-1,4.3c0,1.8,0.3,3.1,1,4c0.7,0.9,1.6,1.4,2.9,1.4c1.3,0,2.2-0.4,2.9-1.3c0.6-0.9,1-2.1,1-3.7
			l1.1,4.5h-1.4c-0.1,1-0.5,1.8-1.3,2.3S28.2,25.9,27,25.9z M31.9,25.8l-0.3-3.1V3.1h3.2v22.6L31.9,25.8z"/>
		<path class="st1" d="M44,25.9c-1.7,0-3-0.4-3.9-1.2c-0.9-0.8-1.4-1.9-1.4-3.4c0-1.7,0.6-3,1.9-3.9c1.3-0.9,3-1.4,5.3-1.4
			c1,0,1.8,0.1,2.5,0.2c0.7,0.1,1.4,0.3,2,0.5L49.8,19c-0.7-0.2-1.3-0.2-2-0.3c-0.6,0-1.3,0-2,0c-2.8,0-4.2,0.8-4.2,2.5
			c0,0.7,0.2,1.2,0.7,1.6c0.5,0.4,1.2,0.6,2,0.6c1,0,1.8-0.2,2.5-0.5c0.7-0.3,1.2-0.8,1.5-1.3c0.3-0.5,0.5-1.1,0.5-1.6v-1.7l0.9,4.1
			h-1.3l0.5-0.5c0,0.9-0.2,1.7-0.6,2.3c-0.4,0.6-1,1.1-1.8,1.4S45,25.9,44,25.9z M49.6,25.8l-0.2-4.7L49,19.7v-4.1
			c0-1.1-0.4-1.8-1.1-2.3c-0.7-0.5-1.9-0.8-3.3-0.8l-3.8-0.1L41,9.5l3.2,0c2.6,0,4.6,0.6,5.9,1.7c1.3,1.1,1.9,2.7,1.9,4.8v6.7
			l2.7,0.3v2.6L49.6,25.8z"/>
		<path class="st1" d="M62.2,25.6l-5.7-16h3.4l4.3,13.2h0.3l4.3-13.2h3.4l-5.7,16H62.2z"/>
		<path class="st1" d="M75.8,25.6V23h6.4v2.6H75.8z M76.7,12.3V9.7h8.4v2.6H76.7z M83.4,7.2c-0.6,0-1.1-0.2-1.6-0.7s-0.7-1-0.7-1.6
			c0-0.6,0.2-1.1,0.7-1.6s1-0.6,1.6-0.6c0.6,0,1.1,0.2,1.6,0.6s0.6,1,0.6,1.6c0,0.6-0.2,1.1-0.6,1.6S84,7.2,83.4,7.2z M81.9,25.6
			v-15h3.2v15H81.9z M84.8,25.6V23H90v2.6H84.8z"/>
		<path class="st1" d="M99.3,25.9c-2.1,0-3.7-0.7-4.7-2.1c-1.1-1.4-1.6-3.4-1.6-6.1c0-2.8,0.5-4.9,1.6-6.3c1.1-1.4,2.7-2.1,4.7-2.1
			c1.2,0,2.2,0.3,2.9,0.8c0.7,0.6,1.2,1.3,1.3,2.3h1.2l-0.9,4.5c0-1.6-0.3-2.9-1-3.7c-0.6-0.9-1.6-1.3-2.9-1.3
			c-1.3,0-2.3,0.5-2.9,1.4s-1,2.4-1,4.3c0,1.8,0.3,3.1,1,4c0.7,0.9,1.6,1.4,2.9,1.4c1.3,0,2.2-0.4,2.9-1.3c0.6-0.9,1-2.1,1-3.7
			l1.1,4.5h-1.4c-0.1,1-0.5,1.8-1.3,2.3S100.5,25.9,99.3,25.9z M104.1,25.8l-0.3-3.1V3.1h3.2v22.6L104.1,25.8z"/>
		<path class="st1" d="M120.1,25.9c-2.7,0-4.8-0.7-6.3-2.1c-1.5-1.4-2.2-3.5-2.2-6.2c0-2.6,0.6-4.6,1.9-6.1c1.3-1.4,3-2.2,5.3-2.2
			c2.2,0,3.8,0.7,5,2c1.2,1.3,1.8,3.2,1.8,5.7c0,0.7,0,1.4-0.1,2h-11.2v-2.4h8.4c0-1.4-0.3-2.5-1-3.3c-0.7-0.8-1.6-1.2-2.8-1.2
			c-1.4,0-2.4,0.5-3.2,1.4c-0.7,0.9-1.1,2.2-1.1,3.9c0,1.8,0.5,3.3,1.5,4.2s2.5,1.4,4.4,1.4c0.7,0,1.3,0,2-0.1s1.3-0.2,2-0.3
			l0.4,2.8c-0.9,0.2-1.8,0.3-2.6,0.3C121.4,25.9,120.7,25.9,120.1,25.9z"/>
		<path class="st1" d="M130,25.6V4.3h3v21.4H130z M132.6,19v-2.9h3.6c1.6,0,2.9-0.4,3.7-1.2c0.8-0.8,1.3-2,1.3-3.6
			c0-1.4-0.4-2.4-1.3-3.1c-0.8-0.7-2.1-1.1-3.7-1.1h-3.6V4.3h3.6c2.7,0,4.7,0.6,6.1,1.8c1.4,1.2,2.1,3,2.1,5.3
			c0,2.5-0.7,4.4-2.1,5.7c-1.4,1.3-3.4,1.9-6.1,1.9H132.6z"/>
		<path class="st1" d="M148,25.6V23h6.4v2.6H148z M148.9,12.3V9.7h8.4v2.6H148.9z M155.6,7.2c-0.6,0-1.1-0.2-1.6-0.7s-0.7-1-0.7-1.6
			c0-0.6,0.2-1.1,0.7-1.6s1-0.6,1.6-0.6c0.6,0,1.1,0.2,1.6,0.6s0.6,1,0.6,1.6c0,0.6-0.2,1.1-0.6,1.6S156.2,7.2,155.6,7.2z
			 M154.1,25.6v-15h3.2v15H154.1z M157,25.6V23h5.2v2.6H157z"/>
		<path class="st1" d="M166.2,25.6v-16h2.9l0.3,3.4v12.6H166.2z M176,25.6V15.3c0-1-0.3-1.7-0.8-2.2c-0.5-0.5-1.2-0.8-2.1-0.8
			c-2.5,0-3.8,1.5-3.8,4.4l-0.9-4.1h1.2c0.1-1.1,0.5-1.9,1.2-2.4c0.7-0.5,1.7-0.8,3-0.8c1.7,0,3,0.5,3.9,1.5s1.4,2.5,1.4,4.3v10.4
			H176z"/>
		<path class="st1" d="M182.8,12.3V9.7h14.4v2.6H182.8z M186.8,18.1V4.9h3.2v13.2H186.8z M193.7,25.9c-2.4,0-4.2-0.5-5.2-1.5
			c-1.1-1-1.6-2.6-1.6-4.8v-2.7h3.2v2.6c0,1.3,0.3,2.2,0.9,2.8c0.6,0.6,1.6,0.9,3,0.9c0.5,0,1,0,1.6-0.1c0.6-0.1,1.2-0.1,1.9-0.2
			l0.4,2.8c-0.7,0.1-1.4,0.2-2.1,0.3C195.1,25.9,194.4,25.9,193.7,25.9z"/>
		<path class="st1" d="M208.8,25.9c-2.2,0-3.9-0.7-5.1-2.2c-1.2-1.4-1.8-3.5-1.8-6.1c0-2.6,0.6-4.7,1.8-6.1c1.2-1.4,2.9-2.2,5.1-2.2
			c2.2,0,3.9,0.7,5.2,2.2s1.8,3.5,1.8,6.1c0,2.6-0.6,4.7-1.8,6.1C212.8,25.2,211,25.9,208.8,25.9z M208.8,23.1
			c1.2,0,2.1-0.5,2.7-1.4c0.6-0.9,1-2.3,1-4c0-1.7-0.3-3.1-1-4c-0.6-0.9-1.5-1.4-2.7-1.4s-2.1,0.5-2.7,1.4c-0.6,0.9-1,2.3-1,4
			c0,1.7,0.3,3.1,1,4C206.7,22.6,207.6,23.1,208.8,23.1z"/>
		<path class="st1" d="M219.1,25.6V23h10.7v2.6H219.1z M219.7,12.3V9.7h5.3l0.3,2.6H219.7z M222.6,25.6v-16h2.6l0.6,4.6v11.4H222.6z
			 M225.8,18.8l-0.9-5h1.2c0.2-2.9,1.6-4.4,4.4-4.4c1.6,0,2.8,0.5,3.6,1.4c0.7,0.9,1.1,2.5,1.1,4.6H232c0-1.2-0.2-2-0.5-2.5
			c-0.3-0.5-0.9-0.8-1.7-0.8c-1.4,0-2.4,0.6-3,1.7C226.1,15,225.8,16.6,225.8,18.8z"/>
		<path class="st1" d="M246.5,25.9c-2.7,0-4.8-0.7-6.3-2.1c-1.5-1.4-2.2-3.5-2.2-6.2c0-2.6,0.6-4.6,1.9-6.1c1.3-1.4,3-2.2,5.3-2.2
			c2.2,0,3.8,0.7,5,2c1.2,1.3,1.8,3.2,1.8,5.7c0,0.7,0,1.4-0.1,2h-11.2v-2.4h8.4c0-1.4-0.3-2.5-1-3.3c-0.7-0.8-1.6-1.2-2.8-1.2
			c-1.4,0-2.4,0.5-3.2,1.4c-0.7,0.9-1.1,2.2-1.1,3.9c0,1.8,0.5,3.3,1.5,4.2s2.5,1.4,4.4,1.4c0.7,0,1.3,0,2-0.1s1.3-0.2,2-0.3
			l0.4,2.8c-0.9,0.2-1.8,0.3-2.6,0.3C247.8,25.9,247.1,25.9,246.5,25.9z"/>
		<path class="st0" d="M260.2,32.2l1.2-10.4h3.5L263,32.2H260.2z M263,13.8c-0.6,0-1.1-0.2-1.6-0.7s-0.7-1-0.7-1.6
			c0-0.6,0.2-1.1,0.7-1.6s1-0.6,1.6-0.6c0.6,0,1.1,0.2,1.6,0.6c0.4,0.4,0.6,1,0.6,1.6c0,0.6-0.2,1.1-0.6,1.6
			C264.1,13.6,263.6,13.8,263,13.8z"/>
	</g>
</g>
</svg>
