<?xml version="1.0" encoding="utf-8"?>
<!-- Generator: Adobe Illustrator 26.5.0, SVG Export Plug-In . SVG Version: 6.00 Build 0)  -->
<svg version="1.1" id="Livello_2" xmlns="http://www.w3.org/2000/svg" xmlns:xlink="http://www.w3.org/1999/xlink" x="0px" y="0px"
	 viewBox="0 0 148 150" style="enable-background:new 0 0 148 150;" xml:space="preserve">
<style type="text/css">
	.st0{fill:#1D1D1D;}
</style>
<path class="st0" d="M74,5.5c0.8,0,1.6,0.2,2.3,0.5L82,8.6c1.9,0.9,3.9,1.3,6,1.3c0.4,0,0.8,0,1.1,0l6.3-0.5c0.1,0,0.3,0,0.4,0
	c1.4,0,2.8,0.6,3.9,1.6l4.5,4.4c1.7,1.7,3.9,3,6.3,3.6l6.1,1.7c1.5,0.4,2.8,1.5,3.5,2.9l2.7,5.7c1.1,2.2,2.7,4.1,4.7,5.6l5.1,3.7
	c1.3,0.9,2.1,2.4,2.3,3.9l0.6,6.3c0.2,2.4,1.1,4.8,2.5,6.8l3.6,5.2c0.9,1.3,1.2,2.9,0.8,4.5l-1.6,6.1c-0.6,2.4-0.6,4.9,0,7.2
	l1.6,6.1c0.4,1.5,0.1,3.2-0.8,4.5l-3.6,5.2c-1.4,2-2.2,4.4-2.5,6.8l-0.6,6.3c-0.2,1.6-1,3-2.3,3.9l-5.1,3.7c-2,1.4-3.6,3.3-4.7,5.5
	l-2.7,5.7c-0.7,1.4-2,2.5-3.5,2.9l-6.1,1.7c-2.4,0.7-4.5,1.9-6.3,3.6l-4.5,4.4c-1,1-2.4,1.6-3.9,1.6c-0.1,0-0.3,0-0.4,0l-6.3-0.5
	c-0.4,0-0.8,0-1.1,0c-2.1,0-4.1,0.4-6,1.3l-5.8,2.6c-0.7,0.3-1.5,0.5-2.3,0.5s-1.6-0.2-2.3-0.5l-5.8-2.6c-1.9-0.9-3.9-1.3-6-1.3
	c-0.4,0-0.8,0-1.1,0l-6.3,0.5c-0.1,0-0.3,0-0.4,0c-1.4,0-2.8-0.6-3.9-1.6l-4.5-4.4c-1.7-1.7-3.9-3-6.3-3.6l-6.1-1.7
	c-1.5-0.4-2.8-1.5-3.5-2.9l-2.7-5.7c-1.1-2.2-2.7-4.1-4.7-5.5l-5.1-3.7c-1.3-0.9-2.1-2.4-2.3-3.9l-0.6-6.3c-0.2-2.4-1.1-4.8-2.5-6.8
	l-3.6-5.2c-0.9-1.3-1.2-2.9-0.8-4.5l1.6-6.1c0.6-2.4,0.6-4.9,0-7.2l-1.6-6.1c-0.4-1.5-0.1-3.2,0.8-4.5l3.6-5.2
	c1.4-2,2.2-4.4,2.5-6.8l0.6-6.3c0.2-1.6,1-3,2.3-3.9l5.1-3.7c2-1.4,3.6-3.3,4.7-5.6l2.7-5.7c0.7-1.4,2-2.5,3.5-2.9l6.1-1.7
	c2.4-0.7,4.5-1.9,6.3-3.6l4.5-4.4c1-1,2.4-1.6,3.9-1.6c0.1,0,0.3,0,0.4,0l6.3,0.5c0.4,0,0.8,0,1.1,0c2.1,0,4.1-0.4,6-1.3L71.7,6
	C72.4,5.7,73.2,5.5,74,5.5 M74,1.5c-1.3,0-2.7,0.3-3.9,0.9L64.3,5c-1.4,0.6-2.9,0.9-4.3,0.9c-0.3,0-0.5,0-0.8,0l-6.3-0.5
	c-0.2,0-0.5,0-0.7,0c-2.5,0-4.9,1-6.7,2.7l-4.5,4.4c-1.3,1.2-2.8,2.1-4.5,2.6l-6.1,1.7c-2.6,0.7-4.8,2.6-6,5.1l-2.7,5.7
	c-0.8,1.6-1.9,3-3.4,4L13,35.3c-2.2,1.6-3.7,4.1-3.9,6.8l-0.6,6.3c-0.2,1.8-0.8,3.5-1.8,4.9l-3.6,5.2c-1.6,2.3-2.1,5.1-1.4,7.8
	l1.6,6.1c0.4,1.7,0.4,3.5,0,5.2l-1.6,6.1c-0.7,2.7-0.2,5.5,1.4,7.8l3.6,5.2c1,1.5,1.6,3.2,1.8,4.9l0.6,6.3c0.3,2.7,1.7,5.2,3.9,6.8
	l5.1,3.7c1.4,1,2.6,2.4,3.4,4l2.7,5.7c1.2,2.5,3.4,4.3,6,5.1l6.1,1.7c1.7,0.5,3.3,1.4,4.5,2.6l4.5,4.4c1.8,1.8,4.2,2.7,6.7,2.7
	c0.2,0,0.5,0,0.7,0l6.3-0.5c0.3,0,0.5,0,0.8,0c1.5,0,3,0.3,4.3,0.9l5.8,2.6c1.2,0.6,2.6,0.9,3.9,0.9s2.7-0.3,3.9-0.9l5.8-2.6
	c1.4-0.6,2.9-0.9,4.3-0.9c0.3,0,0.5,0,0.8,0l6.3,0.5c0.2,0,0.5,0,0.7,0c2.5,0,4.9-1,6.7-2.7l4.5-4.4c1.3-1.2,2.8-2.1,4.5-2.6
	l6.1-1.7c2.6-0.7,4.8-2.6,6-5.1l2.7-5.7c0.8-1.6,1.9-3,3.4-4l5.1-3.7c2.2-1.6,3.7-4.1,3.9-6.8l0.6-6.3c0.2-1.8,0.8-3.5,1.8-4.9
	l3.6-5.2c1.6-2.3,2.1-5.1,1.4-7.8l-1.6-6.1c-0.4-1.7-0.4-3.5,0-5.2l1.6-6.1c0.7-2.7,0.2-5.5-1.4-7.8l-3.6-5.2
	c-1-1.5-1.6-3.2-1.8-4.9l-0.6-6.3c-0.3-2.7-1.7-5.2-3.9-6.8l-5.1-3.7c-1.4-1-2.6-2.4-3.4-4l-2.7-5.7c-1.2-2.5-3.4-4.3-6-5.1
	l-6.1-1.7c-1.7-0.5-3.3-1.4-4.5-2.6l-4.5-4.4c-1.8-1.8-4.2-2.7-6.7-2.7c-0.2,0-0.5,0-0.7,0l-6.3,0.5c-0.3,0-0.5,0-0.8,0
	c-1.5,0-3-0.3-4.3-0.9l-5.8-2.6C76.7,1.8,75.3,1.5,74,1.5L74,1.5z"/>
</svg>
